<?xml version="1.0" encoding="iso-8859-1"?>
<!-- Generator: Adobe Illustrator 15.1.0, SVG Export Plug-In . SVG Version: 6.00 Build 0)  -->
<!DOCTYPE svg PUBLIC "-//W3C//DTD SVG 1.1//EN" "http://www.w3.org/Graphics/SVG/1.1/DTD/svg11.dtd">
<svg version="1.1" xmlns="http://www.w3.org/2000/svg" xmlns:xlink="http://www.w3.org/1999/xlink" x="0px" y="0px" width="100%" height="100%" viewBox="0 0 300 300" style="enable-background:new 0 0 300 300;" xml:space="preserve">
<g id="white">
	<g>
		<path style="fill:#F2F2F2;" d="M103.078,174.682c7.376-1.385,27.376-52.442,25.025-79.741c-0.163-0.023-0.289-0.047-0.356-0.082
			c-8.131-5.2-41.755-7.829-65.903,14.746c-0.305,0.189-0.586,0.367-0.87,0.55c-2.088,1.16-12.986,10.465-12.986,10.465
			c-4.262,4.991-6.717,16.914-6.711,22.681c0.009,6.105-4.104,17.805-6.639,19.78c-0.526,0.41-0.852,1.049-0.952,1.799
			c1.659,0.1,4.081,0.02,6.802-0.799c3.821-1.146,5.611,4.354-0.085,8.193c0.124,0.467,0.886,2.785,3.989,3.969
			c2.478-0.627,6.799-1.783,9.222-2.822c3.531-1.514,2.522,1.516-2.526,3.029c-1.777,0.533-3.173,1.035-4.244,1.461
			c1.292,1.484,3.99,3.828,8.34,4.111c3.064,0.195,6.566-0.416,9.885-1.012C65.068,181.01,94.499,182.252,103.078,174.682z"/>
		<path style="fill:#F2F2F2;" d="M227.249,173.672c5.472-3.979,22.194-3.066,28.482-14.135c1.108-5.346,2.088-11.451,2.856-18.378
			c3.29-29.726-23.211-50.074-45.955-54.12c-15.822-2.816-28.693-2.401-32.542-2.115c-3.851,0.287-25.77,7.876-31.966,8.64
			c-0.032,0.005-0.067,0.005-0.097,0.012c0.174,9.795,1.528,59.991,11.079,74.546c6.577,10.02,11.017,15.965,13.438,21.199
			c13.756,2.568,28.212,0.195,29.96-0.105c0.492-0.586,1-1.217,1.527-1.914C208.576,181.242,221.694,177.709,227.249,173.672z"/>
	</g>
</g>
<g id="black">
	<path style="fill:#040000;" d="M53.613,173.42c-2.422,1.039-6.744,2.195-9.222,2.822c0.458,0.172,0.967,0.324,1.535,0.438
		c0,0,0.302,0.52,0.917,1.23c1.071-0.426,2.467-0.928,4.244-1.461C56.135,174.936,57.144,171.906,53.613,173.42z"/>
	<path style="fill:#040000;" d="M40.487,164.08c-2.721,0.818-5.143,0.898-6.802,0.799c-0.281,2.107,1.224,5.123,5.237,6.736
		c0.597,0.244,1.074,0.439,1.464,0.594c0.002,0.012,0.009,0.041,0.015,0.064C46.098,168.434,44.308,162.934,40.487,164.08z"/>
	<path style="fill:#040000;" d="M148.028,93.575c-5.833,0.709-17.554,1.662-19.925,1.366c2.351,27.299-17.649,78.356-25.025,79.741
		c-8.58,7.57-38.01,6.328-38.01,6.328c-0.319,5.861-1.047,18.285-1.686,21.094c-0.84,3.715-2.463,16.863-4.951,18.461
		c-2.484,1.604-7.791,1.326-11.92,3.869c-4.128,2.543-2.901,8.033-0.786,9.441c2.591,3.75,4.324,2.059,9.819,3.879
		c5.498,1.828,17.888-2.744,19.153-3.732s27.722-20.607,33.453-51.563c9.06-2.313,19.677,1.291,23.203,3.633
		c3.524,2.342,15.355,33.172,12.12,37.732c-8.066,6.635-9.092,11.848-6.784,14.799c2.304,2.959,22.356,4.289,29.016-0.225
		c6.66-4.52,4.256-12.826,3.356-17.9c-0.902-5.068,3.816-24.699,2.725-31.32c0.252,0.051,0.506,0.096,0.76,0.143
		c-2.422-5.234-6.861-11.18-13.438-21.199C149.557,153.566,148.202,103.371,148.028,93.575z"/>
	<path style="fill:#040000;" d="M275.922,213.869c-1.741-4.414-7.62-9.336-10.673-12.381c-2.544-2.533-10.641-19.697-13.9-25.943
		c1.556-4.295,3.061-9.607,4.383-16.008c-6.288,11.068-23.011,10.156-28.482,14.135c-5.555,4.037-18.673,7.57-23.216,13.629
		c-0.527,0.697-1.035,1.328-1.527,1.914c0.116-0.023,0.179-0.037,0.179-0.037c2.408,8.313,17.887,31.203,17.372,32.285
		c-0.515,1.076-5.72,6.158-8.116,7.008c-2.389,0.848-1.826,2.445-3.094,3.434c-1.217,0.609-2.295,3.146,0.809,5.82
		c1.136,6.24,21.983,4.242,26.532,1.373c2.556-1.615,3.082-16.002,3.868-28.943c4.49,6.961,7.489,14.889,6.773,16.904
		c-1.172,3.289-1.964,6.627-1.022,8.266c0.942,1.645,10.76,2.471,15.922,0.822C266.891,234.494,277.664,218.281,275.922,213.869z"/>
	<path style="fill:#040000;" d="M52.172,144.649c1.639-3.998,6.382-2.266,8.69,0.692c2.304,2.952,4.436,6.993,6.116,9.145
		c2.964,3.799,1.041,6.998-5.483,7.334c-6.527,0.338-7.335-5.482-7.998-9.381C52.835,148.542,51.125,147.199,52.172,144.649z"/>
	<path style="fill:#040000;" d="M77.599,127.191c-0.521-1.97,0.825-12.865,7.964-11.984c7.14,0.882,8.891,11.398,6.554,17.973
		c-0.839,3.709-0.275,5.308-2.768,3.856c-2.491-1.455-5.262-3.701-5.262-3.701c-1.082-0.516-1.082-0.516-1.082-0.516L77.599,127.191
		z"/>
	<path style="fill:#040000;" d="M60.974,110.155c-1.375-2.407-3.797-5.3-8.059-5.468c-4.558-0.18-8.917,4.239-7.358,10.154
		c0.686,2.608,1.617,4.43,2.431,5.779L60.974,110.155z"/>
</g>
</svg>
